<?xml version="1.0" encoding="utf-8"?><svg xmlns="http://www.w3.org/2000/svg" xmlns:xlink="http://www.w3.org/1999/xlink"><symbol viewBox="0 0 140 130" id="experience" xmlns="http://www.w3.org/2000/svg"><path d="M132.423 56.463a6.485 6.485 0 0 1-6.484 6.484 6.483 6.483 0 0 1 6.484 6.481 6.48 6.48 0 0 1 6.48-6.481 6.482 6.482 0 0 1-6.48-6.484zM41.374 69.506a4.04 4.04 0 0 1-4.04 4.039 4.04 4.04 0 0 1 4.04 4.039 4.038 4.038 0 0 1 4.037-4.039 4.037 4.037 0 0 1-4.037-4.039zM86.33 0a6.088 6.088 0 0 1-6.086 6.086 6.086 6.086 0 0 1 6.086 6.084 6.083 6.083 0 0 1 6.084-6.084A6.084 6.084 0 0 1 86.33 0zM48.881 107.53a4.32 4.32 0 0 1-4.32 4.32 4.32 4.32 0 0 1 4.32 4.322 4.32 4.32 0 0 1 4.32-4.322 4.319 4.319 0 0 1-4.32-4.32zM7.183 61.585A6.936 6.936 0 0 1 .248 68.52a6.936 6.936 0 0 1 6.935 6.934 6.933 6.933 0 0 1 6.933-6.934 6.933 6.933 0 0 1-6.933-6.935zM99.195 73.549a4.458 4.458 0 0 1-4.457 4.457 4.455 4.455 0 0 1 4.457 4.455 4.453 4.453 0 0 1 4.453-4.455 4.456 4.456 0 0 1-4.453-4.457zM133.746 105.741a6.258 6.258 0 0 1-6.258 6.256 6.258 6.258 0 0 1 6.258 6.256 6.254 6.254 0 0 1 6.254-6.256 6.254 6.254 0 0 1-6.254-6.256zM108.361 15.438a3.877 3.877 0 0 1-3.879 3.879 3.878 3.878 0 0 1 3.879 3.88 3.879 3.879 0 0 1 3.881-3.88 3.88 3.88 0 0 1-3.881-3.879zM17.332 106.565c0 2.219-1.8 4.018-4.018 4.018a4.017 4.017 0 0 1 4.018 4.018 4.016 4.016 0 0 1 4.018-4.018 4.017 4.017 0 0 1-4.018-4.018zM68.966 121.358a4.32 4.32 0 0 1-4.321 4.32A4.321 4.321 0 0 1 68.966 130a4.32 4.32 0 0 1 4.321-4.322 4.32 4.32 0 0 1-4.321-4.32zM3.992 12.136A3.991 3.991 0 0 1 0 16.127a3.992 3.992 0 0 1 3.992 3.991 3.99 3.99 0 0 1 3.99-3.991 3.99 3.99 0 0 1-3.99-3.991zM75.628 85.178H61.76c-.806 0-1.458 1.482-1.458 2.289 0 .805.652 2.287 1.458 2.287h4.647l-5.091.949c-.764.248-1.185.719-.938 1.484.2.617.772.834 1.39.834.147 0 .299-.113.449-.158l13.862-4.541c.682-.221 1.102-1.057.99-1.766-.114-.706-.724-1.378-1.441-1.378zM75.611 95.477h-4.635l5.086-2.299c.766-.246 1.186-1.393.936-2.16-.25-.766-1.068-1.348-1.838-1.1l-13.851 4.414c-.683.225-1.102 1.203-.99 1.912.111.707.724 1.521 1.441 1.521h1.259l2.204 3.434h6.873l2.238-3.434h1.277c.807 0 1.457-.34 1.457-1.145 0-.805-.651-1.143-1.457-1.143zM68.696 36.465c-10.862.013-19.681 8.819-19.681 19.685 0 5.222 2.656 9.73 5.348 13.771 5.945 8.932 2.567 13.77 5.999 13.77h16.69c3.436 0 .049-4.838 5.994-13.77 2.691-4.041 5.34-8.409 5.34-13.627.002-10.869-8.826-19.816-19.69-19.829z"/><path d="M77.695 62.196c-.041.105-4.25 10.583-3.914 19.937.02.574-.305 1.061-.721 1.088-.016.004-.027.004-.041.004-.4 0-.738-.434-.756-.99-.281-7.852 2.324-16.135 3.523-19.506h-2.754c-.361 0-.67-.352-.74-.826l-1.053 3.182c-.146.435-.492.682-.831.593-.342-.084-.598-.477-.619-.956l-.086-1.834-.739 2.561c-.136.463-.487.739-.851.637-.356-.094-.614-.522-.614-1.022v-1.937l-.686 2.129c-.145.443-.497.699-.84.601-.346-.09-.601-.501-.612-.984l-.081-3.23-.314.633c-.142.283-.378.458-.63.458H61.69c2.894 7.278 3.35 18.875 3.368 19.401.021.576-.303 1.063-.72 1.092-.415.063-.776-.41-.796-.986-.006-.131-.528-13.426-3.829-19.951a1.361 1.361 0 0 1-.049-1.077c.132-.343.388-.556.672-.556h3.598l1.392-2.822c.184-.372.522-.54.838-.416.316.125.536.512.549.962l.049 1.886.804-2.494c.145-.447.498-.695.851-.602.353.104.602.529.602 1.021v1.435l.526-1.815c.133-.451.479-.718.825-.645.35.078.619.476.638.964l.105 2.304.883-2.67c.141-.422.471-.66.805-.598.334.068.596.431.639.891l.262 2.603h3.338c.268 0 .516.197.652.515.134.305.136.696.003 1.02z"/><path opacity=".3" d="M71.291 41.375c-9.589 0-17.365 7.848-17.365 17.528"/><g opacity=".7"><path d="M113.13 57.296l-6.256-3.638c-.365-.213-1.049.286-1.26.649-.211.364-.307 1.203.059 1.415l2.096 1.22-2.547-.908c-.408-.088-.723.014-.811.425-.072.33.129.578.406.74.068.039.166.027.244.046l7.447 1.588c.367.079.773-.188.91-.536.136-.35.037-.814-.288-1.001zM110.421 61.938l-2.09-1.215 2.896.297c.41.089.9-.317.99-.729.086-.411-.131-.89-.541-.979l-7.41-1.642c-.365-.078-.813.253-.947.602s-.072.878.252 1.065l.566.33.094 2.127 3.102 1.804 1.91-.962.576.334c.365.212.748.229.959-.135.212-.361.007-.686-.357-.897zM122.781 33.496c-4.904-2.844-11.193-1.183-14.043 3.719-1.369 2.356-1.354 5.089-1.199 7.618.34 5.589-2.455 6.886-.904 7.787l3.756 2.184 3.773 2.193c1.551.901 1.291-2.171 6.316-4.64 2.275-1.117 4.617-2.393 5.986-4.749 2.852-4.903 1.215-11.256-3.685-14.112z"/><path d="M120.093 47.468c-.047.036-4.693 3.661-6.998 7.97-.141.265-.416.397-.611.302-.008-.002-.012-.005-.018-.009-.182-.105-.219-.391-.082-.646 1.934-3.616 5.281-6.671 6.707-7.877l-1.242-.723c-.162-.095-.211-.335-.117-.566l-1.311 1.158c-.18.158-.4.179-.529.051-.133-.129-.145-.373-.029-.596l.443-.849-1.006.962c-.184.174-.414.205-.551.063-.137-.136-.141-.396-.01-.621l.508-.874-.867.781c-.182.161-.408.184-.535.051-.133-.132-.141-.384-.02-.604l.813-1.479-.311.203c-.137.091-.291.108-.404.042l-1.193-.694c-.604 4.043-3.439 9.396-3.57 9.638-.143.266-.414.399-.611.304-.203-.081-.242-.39-.1-.653.031-.061 3.283-6.197 3.506-10.008a.717.717 0 0 1 .26-.498c.15-.12.322-.149.449-.075l1.623.944 1.369-.909c.18-.119.377-.107.486.032.109.139.109.372-.004.578l-.473.864 1.018-.915c.182-.164.408-.184.543-.049.131.14.131.397.002.618l-.377.647.713-.682c.18-.168.406-.197.543-.073.137.127.154.376.035.602l-.557 1.066 1.098-.973c.176-.152.387-.174.521-.058.133.118.156.352.053.569l-.564 1.243 1.508.875c.119.07.18.225.158.404a.71.71 0 0 1-.266.464z"/><path opacity=".3" d="M122.666 36.393c-4.328-2.516-9.895-1.015-12.436 3.354"/></g><g opacity=".7"><path d="M33.862 92.555l-1.439 4.924c-.084.287.376.672.661.754.287.086.88.008.964-.279l.483-1.65-.192 1.908c.009.297.132.494.43.484.24-.006.376-.188.441-.404.015-.055-.011-.119-.011-.176l-.174-5.395c-.007-.266-.26-.502-.524-.535-.263-.033-.564.115-.639.369zM37.516 93.629l-.479 1.646-.289-2.043c-.008-.299-.372-.566-.668-.559-.3.01-.591.24-.581.539l.13 5.377c.007.264.312.516.574.549.264.033.615-.1.69-.354l.131-.447 1.447-.426.715-2.441-.988-1.15.132-.453c.084-.285.031-.553-.254-.637-.288-.083-.475.114-.56.399zM15.847 89.963c-1.122 3.857 1.09 7.902 4.947 9.027 1.854.543 3.73.066 5.444-.469 3.787-1.184 5.155.52 5.511-.701l.864-2.955.868-2.969c.357-1.221-1.714-.521-4.266-3.559-1.156-1.375-2.433-2.77-4.285-3.311-3.858-1.127-7.951 1.08-9.083 4.937z"/><path d="M25.917 89.438c.032.025 3.317 2.605 6.673 3.459.206.051.345.217.313.367a.046.046 0 0 1-.004.016c-.042.143-.23.215-.431.164-2.815-.715-5.487-2.5-6.56-3.273l-.285.977c-.038.129-.195.203-.37.178l1.02.703c.14.098.191.246.125.357-.067.113-.232.164-.404.119l-.659-.158.833.527c.149.096.211.25.137.369-.071.117-.25.164-.426.111l-.688-.201.686.467c.142.094.194.246.126.357-.068.113-.24.162-.413.115l-1.156-.305.193.178c.086.078.124.182.097.27l-.274.939c2.884-.271 7.049.77 7.237.818.206.053.347.217.313.369-.022.152-.228.232-.434.178-.046-.01-4.821-1.203-7.481-.709a.515.515 0 0 1-.387-.094c-.107-.082-.156-.197-.127-.297l.372-1.277-.856-.787c-.113-.104-.139-.24-.062-.34.077-.098.238-.137.398-.096l.676.178-.803-.545c-.145-.096-.195-.248-.125-.363.073-.113.249-.16.423-.107l.511.148-.59-.373c-.146-.096-.205-.246-.143-.361.063-.117.231-.17.408-.127l.828.201-.857-.59c-.134-.094-.186-.234-.127-.348.058-.111.214-.168.382-.133l.95.176.347-1.186c.026-.094.123-.164.251-.178a.504.504 0 0 1 .363.107z"/><path opacity=".3" d="M17.86 89.549c-.996 3.404.984 6.98 4.421 7.986"/></g><path opacity=".5" d="M68.701 29.735a1.28 1.28 0 0 1-1.279-1.28v-9.109a1.279 1.279 0 1 1 2.559 0v9.109a1.28 1.28 0 0 1-1.28 1.28zM81.361 35.16a1.279 1.279 0 0 1-.316-1.782l5.211-7.472a1.277 1.277 0 0 1 1.781-.317c.58.404.723 1.202.316 1.781l-5.209 7.473a1.283 1.283 0 0 1-1.783.317zM89.539 43.259a1.28 1.28 0 0 1 .537-1.729l8.068-4.23a1.28 1.28 0 0 1 1.729.539 1.277 1.277 0 0 1-.541 1.727l-8.064 4.233a1.282 1.282 0 0 1-1.729-.54zM55.755 35.16a1.28 1.28 0 0 0 .318-1.782l-5.212-7.472a1.28 1.28 0 0 0-1.783-.317 1.278 1.278 0 0 0-.316 1.781l5.211 7.473a1.282 1.282 0 0 0 1.782.317zM47.525 43.259a1.281 1.281 0 0 0-.538-1.729L38.92 37.3a1.28 1.28 0 0 0-1.729.539 1.278 1.278 0 0 0 .539 1.727l8.066 4.233a1.282 1.282 0 0 0 1.729-.54z"/><path d="M84.835 118.928l11.346-26.977s20.242 5.607 28.803-5.539c.432-.561-.586 3.34-.586 3.34l-9.191 24.885s-3.582 13.047-30.221 3.936M115.812 102.635s-6.506 3.209-19.295-.125M115.783 105.813s-5.055 3.775-18.037 1.289M114.32 109.969s-3.816 3.674-17.736 1.104M113.482 114.379s-6.711 3.512-21.695-.582"/><path d="M94.13 96.182l2.051-4.23s20.242 5.607 28.803-5.539c.432-.561-.586 3.34-.586 3.34s-1.352 14.199-29.938 6.764"/><path d="M127.488 83.116c-.082-5.096-2.975-7.527-2.975-7.527s-13.365 31.719-13.26 31.832c4.549 5.063 2.053 10.41 2.053 10.41l14.182-34.715z"/><ellipse transform="rotate(25.12 97.634 94.464)" cx="97.641" cy="94.476" rx=".95" ry="1.038"/><path d="M101.046 95.288c-.201.535-.762.818-1.252.635-.494-.182-.729-.766-.529-1.301.201-.537.764-.824 1.254-.637.49.182.729.767.527 1.303z"/><ellipse transform="rotate(18.933 102.641 95.453)" cx="102.635" cy="95.436" rx=".951" ry="1.037"/><g><path d="M42.474 1.138l-.858 29.055s-20.762 2.049-24.704 15.439c-.201.676-.653-3.301-.653-3.301l-.391-26.349S14.519 2.614 42.462 1.521M21.866 33.104s2.572-4.111 15.268-7.45M21.103 28.996s1.17-3.828 13.618-7.998M20.345 24.54s6.055-6.603 14.631-7.9M18.925 20.316s8.095-7.738 18.463-8.587"/><path d="M42.001 1.326l-.34 6.468s-20.808.234-24.75 13.626c-.201.675-.653-3.303-.653-3.303s-3.83-13.64 25.318-16.979"/><path d="M15.771 49.586c1.898 4.69 5.447 5.908 5.447 5.908s1.033-34.173.896-34.241c-6.026-3.061-6.122-6.339-6.122-6.339l-.221 34.672z"/></g></symbol><symbol viewBox="0 0 30 29.263" id="git" xmlns="http://www.w3.org/2000/svg"><path d="M19.746 29.238c-.762.137-1.016-.332-1.016-.723v-4.121c0-1.406-.469-2.305-1.016-2.773 3.34-.371 6.855-1.641 6.855-7.402 0-1.641-.586-2.988-1.543-4.023.156-.391.664-1.914-.156-3.984-1.25-.391-4.121 1.543-4.121 1.543a14.066 14.066 0 0 0-7.499-.001S8.379 5.82 7.109 6.211c-.801 2.07-.293 3.594-.137 3.984-.956 1.035-1.542 2.383-1.542 4.024 0 5.742 3.496 7.031 6.836 7.402-.43.391-.82 1.035-.957 2.012-.859.391-3.047 1.055-4.355-1.25-.82-1.426-2.305-1.543-2.305-1.543-1.465-.02-.098.918-.098.918.977.449 1.66 2.188 1.66 2.188.879 2.676 5.059 1.777 5.059 1.777 0 1.25.02 2.441.02 2.793 0 .391-.273.859-1.035.723C4.297 27.246 0 21.621 0 15 0 6.719 6.719 0 15 0s15 6.719 15 15c0 6.621-4.297 12.246-10.254 14.238z"/></symbol><symbol  viewBox="0 0 140 138.526" id="hello" xmlns="http://www.w3.org/2000/svg"><path d="M83.081 0c0 3.513-2.85 6.36-6.361 6.36a6.36 6.36 0 0 1 6.361 6.358 6.356 6.356 0 0 1 6.357-6.358A6.357 6.357 0 0 1 83.081 0zM9.117 95.573a6.36 6.36 0 0 1-6.36 6.359 6.36 6.36 0 0 1 6.36 6.359 6.357 6.357 0 0 1 6.357-6.359 6.357 6.357 0 0 1-6.357-6.359zm22.315-61.995a4.514 4.514 0 0 1-4.515 4.515 4.516 4.516 0 0 1 4.515 4.517 4.516 4.516 0 0 1 4.515-4.517 4.514 4.514 0 0 1-4.515-4.515zm35.374 83.315a4.514 4.514 0 0 1-4.515 4.514 4.516 4.516 0 0 1 4.515 4.518 4.516 4.516 0 0 1 4.515-4.518 4.514 4.514 0 0 1-4.515-4.514zm68.679-12.635a4.513 4.513 0 0 1-4.514 4.514 4.516 4.516 0 0 1 4.514 4.518 4.516 4.516 0 0 1 4.516-4.518 4.514 4.514 0 0 1-4.516-4.514zM128.241 59.478a7.25 7.25 0 0 1-7.248 7.248c4 0 7.248 3.244 7.248 7.246a7.244 7.244 0 0 1 7.244-7.246 7.246 7.246 0 0 1-7.244-7.248zM40 2.305a4.053 4.053 0 0 1-4.054 4.054A4.054 4.054 0 0 1 40 10.415a4.055 4.055 0 0 1 4.056-4.056A4.054 4.054 0 0 1 40 2.305zM7.181 24.192A7.18 7.18 0 0 1 0 31.373a7.183 7.183 0 0 1 7.181 7.184 7.182 7.182 0 0 1 7.183-7.184 7.18 7.18 0 0 1-7.183-7.181zM101.114 124.163a7.183 7.183 0 0 1-7.182 7.182 7.184 7.184 0 0 1 7.182 7.182 7.181 7.181 0 0 1 7.182-7.182 7.181 7.181 0 0 1-7.182-7.182zM92.45 82.727c.445-3.342 0-5.535 0-5.535v-28.31c-.676-.204-1.375-.345-2.115-.345-2.154 0-4.076.935-5.426 2.405V32.909a5.03 5.03 0 0 0-5.029-5.03c-1.512 0-2.852.681-3.773 1.735v-2.74a5.029 5.029 0 0 0-10.057 0v3.196a5.016 5.016 0 0 0-4.147-2.191 5.029 5.029 0 0 0-5.03 5.03v6.663c-.922-1.142-2.315-1.888-3.896-1.888a5.028 5.028 0 0 0-5.029 5.03v34.477c-.755 15.652 5.374 17.16 5.374 17.16h34.375c2.936-4.068 4.178-7.971 4.666-11.029h.09v-.595z"/><path d="M92.588 83.323V48.882c-.674-.204-1.375-.345-2.113-.345a7.394 7.394 0 0 0-7.396 7.396v12.994"/><path d="M67.488 94.352a28.015 28.015 0 0 1-.099-2.313c0-12.279 8.253-22.234 18.433-22.234M56.887 38.094V60.13m9.258-30.161V60.13m10.023-31.057V60.13M80.083 35.799h-3.915m3.915 12.07h-3.915m-6.111-15.337h-3.912m-5.344 5.153h-3.914m3.914 12.698h-3.914m-5.094-2.514H47.88m3.913 7.794H47.88m22.177-9.334h-3.912"/><path d="M81.204 59.16c-.629.082-4.074.439-8.967 1.891a54.646 54.646 0 0 0-8.242 3.195c-2.921 1.499-6.025 3.332-8.627 5.704-2.697 2.279-4.768 4.994-6.267 7.561-1.393 2.57-2.301 5.029-2.662 7.021-.562 2.07-.505 3.609-.593 4.74-.047 1.121-.071 1.76-.071 1.76l25.481-1.984.064-.797c.057-.492-.031-1.281.236-1.986a7.115 7.115 0 0 1 2.422-4.211c.611-.629 1.596-1.158 2.561-1.689 1.045-.488 2.16-.932 3.211-1.234 2.094-.629 3.578-.752 2.934-.688l-1.48-19.283z"/><path d="M72.793 70.151l-.865.328c-.551.217-1.301.582-2.216.994-1.769.904-4.111 2.213-5.957 3.92-1.965 1.631-3.321 3.594-4.203 5.076-.466.736-.642 1.396-.86 1.84l-.299.703 2.452.385.268-.633c.199-.395.348-1 .771-1.65.79-1.32 1.984-3.064 3.732-4.508 1.632-1.52 3.744-2.697 5.344-3.518.838-.371 1.52-.707 2.02-.906l.797-.299-.984-1.732zm7.356-2.059l.387 1.897s-.246.043-.617.113c-.371.078-.861.188-1.357.293-.971.254-1.943.514-1.943.514l-.73-1.816s1.055-.283 2.111-.555l1.471-.319c.406-.075.678-.127.678-.127zM57.688 85.491l2.517.158-.111.475c-.066.286-.175.666-.167 1.053-.04.77-.082 1.539-.082 1.539l-2.548.104s.047-.83.092-1.662c-.006-.416.109-.832.181-1.145.074-.315.118-.522.118-.522z"/><path d="M46.394 72.272c.353.23 2.22 1.561 5.403 2.766 1.593.611 3.557 1.16 5.796 1.49 2.261.268 4.798.373 7.399-.141 2.594-.4 5.133-1.408 7.311-2.57 2.129-1.213 3.959-2.568 5.262-3.84 1.445-1.237 2.289-2.372 2.975-3.149.652-.788 1.027-1.236 1.027-1.236l-13.442-10.31s-.174.2-.482.545c-.305.332-.709.94-1.237 1.324-1.038 1.013-2.245 1.717-3.558 1.925-.65.171-1.426.1-2.192.042-.782-.133-1.572-.325-2.251-.591-1.372-.51-2.158-1.106-1.809-.855l-10.202 14.6z"/><path d="M56.684 68.212s.221.061.604.163c.389.098.959.178 1.632.304 1.369.165 3.243.298 5.101-.084 1.873-.27 3.641-1.063 4.905-1.727.644-.315 1.103-.717 1.46-.93.343-.238.541-.372.541-.372l-.967-1.406s-.178.119-.489.332c-.319.192-.733.56-1.306.837-1.13.587-2.694 1.296-4.357 1.532-1.648.347-3.336.222-4.573.078-.616-.118-1.134-.19-1.489-.277a78.053 78.053 0 0 1-.554-.152l-.508 1.702zm-4.721-1.9l.886-1.549s.145.084.362.204l.821.412c.612.267 1.23.526 1.23.526l-.674 1.646s-.67-.279-1.335-.573c-.323-.16-.65-.323-.892-.446-.238-.134-.398-.22-.398-.22zm20.707-2.209l-1.127-1.274.322-.292c.195-.175.463-.398.678-.682l.91-1.077 1.291 1.101-.984 1.158c-.232.303-.523.551-.738.742l-.352.324z"/><path d="M75.958 56.919l-3.895 1.952a436.112 436.112 0 0 1-8.656 4.175c-3.14 1.468-6.294 2.869-8.506 3.736l-1.441.539-.917.3c-.209.032-.209.066-.228.07l2.596 15.92.577-.121c.355-.08.969-.215 1.575-.387.487-.156 1.079-.35 1.757-.568.588-.221 1.251-.469 1.974-.738 2.765-1.086 6.12-2.588 9.437-4.135a453.674 453.674 0 0 0 8.995-4.338l4.066-2.039-7.334-14.366z"/><path d="M73.395 66.313s-3.439 1.693-6.91 3.313c-3.464 1.639-6.979 3.122-6.979 3.122l.625 1.488s3.559-1.504 7.036-3.148c3.487-1.627 6.936-3.326 6.936-3.326l-.708-1.449zm4.811-2.405l.726 1.442-2.752 1.374-.717-1.445zm-20.807 9.68l.585 1.504-1.46.547-1.503.492-.451-1.549 1.413-.465c.708-.263 1.416-.529 1.416-.529z"/><g stroke-width="6" stroke-miterlimit="10"><path d="M40.578 86.956a207.206 207.206 0 0 0-1.919 12.637c1.383-1.381 3.712-3.316 6.049-3.639 3.673-.506 4.78 1.68 4.228 5.074-.463 2.828-2.397 9.473-.083 8.984 1.324-.268 3.202-2.992 4.026-5.656.213-.625 2.126.301 1.933.754-1.335 3.586-3.767 8.172-8.436 9.154-4.216.879-5.224-1.492-5.233-4.041 0-2.17.785-6.658.933-7.443.226-1.137.028-1.961-1.124-1.674-.781.191-1.936 1.074-2.848 2.176-.546 4.371-1.031 8.266-1.377 11.629-.082.947-7.227 2.484-6.984.535 1.126-9.127 2.966-21.711 4.063-28.58 1.321-1.203 6.677-1.217 6.772.09z"/><path d="M69.32 100.221c-1.012 3.16-4.65 5.148-9.464 5.088.513 2.182 2.355 2.908 5.367 2.535 2.384-.285 5.96-1.797 7.562-6.227.211-.625 2.125.301 1.969.707-2.441 6.373-6.16 9.012-11.256 9.67-7.227.951-10.412-2.736-10.604-7.217-.256-5.875 3.879-10.441 9.941-11.189 5.438-.664 7.785 3.096 6.485 6.633zm-9.623 2.389c2.433-.25 3.669-2.078 3.861-3.467.136-.867-.124-1.514-.761-1.512-1.53-.002-2.846 2.18-3.1 4.979z"/><path d="M88.977 86.717c-.338 5.574-3.902 10.275-10.016 12.818-.373 4.09.736 6.275 3.586 5.969 1.924-.223 4.867-1.393 6.592-6.18.182-.535 2.01.402 1.891.76-1.826 4.973-4.309 9.184-10.607 9.453-6.508.301-8.039-5.271-7.473-13.514.432-6.141 2.357-12.23 5.977-14.982 4.234-3.218 10.474-1.142 10.05 5.676zm-8.441 2.012c-.438 2.059-1.061 4.951-1.328 7.029 1.877-1.193 3.4-4.338 4.004-6.76.613-2.637.563-5.18-.48-5.035-.878.12-1.61 2.219-2.196 4.766z"/><path d="M105.252 84.479c-.338 5.574-3.902 10.273-10.016 12.816-.373 4.09.736 6.277 3.586 5.971 1.924-.223 4.867-1.395 6.592-6.18.182-.535 2.01.402 1.891.76-1.826 4.971-4.309 9.184-10.607 9.453-6.508.301-8.039-5.273-7.473-13.516.432-6.141 2.357-12.229 5.977-14.98 4.234-3.22 10.474-1.142 10.05 5.676zm-8.441 2.01c-.438 2.059-1.061 4.953-1.328 7.031 1.877-1.195 3.4-4.338 4.004-6.76.613-2.637.563-5.182-.48-5.037-.878.121-1.608 2.221-2.196 4.766z"/><path d="M122.52 99.03c1.996-.021 4.143-1.719 5.184-4.967.213-.625 2.119.26 1.934.754-2.152 5.994-5.891 6.637-8.9 6.709-1.852 1.998-4.365 3.195-7.162 3.58-4.924.678-8.893-1.285-8.209-8.354.588-6.246 4.938-9.865 10.078-10.529 7.813-.99 10.016 6.063 7.075 12.807zm-10.242-3.358c-.328 2.555-.691 5.795 1.73 5.461.541-.074 1.049-.398 1.408-.875-.84-1.158-.162-3.037 1.252-3.273.656-3.58.471-7.082-1.609-6.754-1.498.248-2.385 2.455-2.781 5.441z"/></g><path d="M127.704 94.063c-1.041 3.248-3.188 4.945-5.184 4.967 2.941-6.744.738-13.797-7.076-12.807-5.141.664-9.49 4.283-10.078 10.529-.018.186-.02.355-.031.533-1.732 4.613-4.615 5.762-6.512 5.98-2.85.307-3.959-1.881-3.586-5.971 6.113-2.543 9.678-7.242 10.016-12.816.424-6.818-5.816-8.896-10.051-5.676-3.619 2.752-5.545 8.84-5.977 14.98-.137 1.99-.148 3.82.002 5.455-.033.025-.074.043-.088.086-1.725 4.787-4.668 5.957-6.592 6.18-2.85.307-3.959-1.879-3.586-5.969 6.113-2.543 9.678-7.244 10.016-12.818.424-6.818-5.816-8.895-10.051-5.676-3.619 2.752-5.545 8.842-5.977 14.982-.137 1.979-.146 3.799 0 5.426a.278.278 0 0 0-.164.168c-1.602 4.43-5.178 5.941-7.562 6.227-3.012.373-4.854-.354-5.367-2.535 4.813.061 8.452-1.928 9.464-5.088 1.299-3.537-1.047-7.297-6.484-6.633-5.908.729-9.974 5.088-9.94 10.748-.003.008-.014.01-.017.02-.824 2.664-2.702 5.389-4.026 5.656-2.314.488-.38-6.156.083-8.984.553-3.395-.555-5.58-4.228-5.074-2.337.322-4.666 2.258-6.049 3.639a207.331 207.331 0 0 1 1.919-12.637c-.095-1.307-5.451-1.293-6.773-.09-1.097 6.869-2.937 19.453-4.063 28.58-.242 1.949 6.902.412 6.984-.535.346-3.363.831-7.258 1.377-11.629.912-1.102 2.066-1.984 2.848-2.176 1.152-.287 1.35.537 1.124 1.674-.147.785-.933 5.273-.933 7.443.01 2.549 1.018 4.92 5.233 4.041 3.513-.738 5.759-3.518 7.224-6.375 1.305 2.904 4.453 4.822 9.898 4.105 4.354-.563 7.7-2.58 10.104-7.125 1.004 3.078 3.094 4.84 6.82 4.668 5.125-.221 7.721-3.047 9.496-6.771 1.02 3 3.105 4.703 6.779 4.533 4.723-.201 7.301-2.621 9.064-5.914 1.133 3.289 4.213 4.215 7.813 3.721 2.797-.385 5.311-1.582 7.162-3.58 3.01-.072 6.748-.715 8.9-6.709.188-.493-1.718-1.378-1.931-.753zm-30.893-7.574c.588-2.545 1.318-4.645 2.195-4.766 1.043-.145 1.094 2.4.48 5.037-.604 2.422-2.127 5.564-4.004 6.76.268-2.078.892-4.973 1.329-7.031zm-16.275 2.24c.586-2.547 1.318-4.646 2.195-4.766 1.043-.145 1.094 2.398.48 5.035-.604 2.422-2.127 5.566-4.004 6.76.268-2.078.891-4.97 1.329-7.029zm-17.738 8.902c.637-.002.896.645.761 1.512-.192 1.389-1.429 3.217-3.861 3.467.253-2.799 1.569-4.981 3.1-4.979zm53.87-.646c-1.414.236-2.092 2.115-1.252 3.273-.359.477-.867.801-1.408.875-2.422.334-2.059-2.906-1.73-5.461.396-2.986 1.283-5.193 2.781-5.441 2.08-.328 2.266 3.174 1.609 6.754z"/><path opacity=".5" d="M96.711 19.586s12.188 5.536 7.887 23.653M108.338 17.271s8.746 3.974 5.66 16.975M29.621 75.852s-11.934-6.068-6.838-23.979M17.903 77.653s-8.562-4.354-4.907-17.207"/></symbol><symbol viewBox="0 0 30 30" id="sk" xmlns="http://www.w3.org/2000/svg"><path d="M22.5 30a7.466 7.466 0 0 1-4.57-1.563c-.938.195-1.934.313-2.93.313-7.598 0-13.75-6.152-13.75-13.75 0-.996.117-1.992.313-2.93A7.466 7.466 0 0 1 0 7.5C0 3.359 3.359 0 7.5 0c1.719 0 3.301.586 4.57 1.563A14.432 14.432 0 0 1 15 1.25c7.598 0 13.75 6.152 13.75 13.75 0 .996-.117 1.993-.313 2.93A7.47 7.47 0 0 1 30 22.5c0 4.141-3.359 7.5-7.5 7.5zm-5.664-16.934l-2.031-.469c-1.484-.352-2.598-.605-2.598-1.738 0-1.035 1.094-1.504 2.813-1.504 3.066 0 3.125 2.246 5.02 2.246 1.27 0 2.031-.996 2.031-2.129 0-2.246-3.73-3.711-7.422-3.711-3.379 0-7.305 1.465-7.305 5.43 0 3.281 2.188 4.453 5.039 5.137l2.852.703c1.738.43 2.813.625 2.813 1.875 0 .996-1.113 1.758-2.832 1.758-3.613 0-3.809-3.008-5.898-3.008-1.367 0-1.973.977-1.973 2.051 0 2.402 3.672 4.355 8.066 4.355 3.672 0 7.5-1.836 7.5-5.801-.001-3.398-3.302-4.57-6.075-5.195z"/></symbol><symbol viewBox="0 0 37.513 21.403" id="vk" xmlns="http://www.w3.org/2000/svg"><path d="M34.53 7.29c-3.789 5.039-4.199 4.57-1.074 7.48 3.008 2.793 3.633 4.141 3.73 4.316 0 0 1.25 2.188-1.387 2.207l-5 .078c-1.074.215-2.5-.762-2.5-.762-1.875-1.289-3.633-4.629-5-4.199 0 0-1.406.449-1.367 3.457.02.645-.293.996-.293.996s-.352.371-1.035.43h-2.246c-4.941.313-9.297-4.238-9.297-4.238S4.296 12.134.116 2.31c-.273-.645.02-.957.02-.957S.429.982 1.249.982L6.601.943c.507.078.859.351.859.351s.313.215.469.625c.879 2.188 2.012 4.18 2.012 4.18 1.953 4.023 3.281 4.707 4.043 4.297 0 0 .996-.605.781-5.469-.078-1.758-.566-2.559-.566-2.559-.449-.605-1.289-.781-1.66-.84-.293-.039.195-.742.84-1.055.957-.469 2.656-.488 4.668-.469 1.582.02 2.031.117 2.637.254 1.855.449 1.23 2.168 1.23 6.309 0 1.328-.254 3.184.703 3.789.41.273 1.426.039 3.926-4.219 0 0 1.172-2.031 2.09-4.395.156-.43.488-.605.488-.605s.313-.176.742-.117l5.625-.039c1.699-.215 1.973.566 1.973.566.292.802-.626 2.677-2.931 5.743z"/></symbol></svg>